<svg width="20" height="20" viewBox="0 0 20 20" fill="none" xmlns="http://www.w3.org/2000/svg">
<g id="person_apron_FILL1_wght400_GRAD0_opsz48 1">
<path id="Vector" d="M10.0002 9.97949C9.12516 9.97949 8.38558 9.67741 7.78141 9.07324C7.17725 8.46908 6.87516 7.72949 6.87516 6.85449C6.87516 5.97949 7.17725 5.23991 7.78141 4.63574C8.38558 4.03158 9.12516 3.72949 10.0002 3.72949C10.8752 3.72949 11.6147 4.03158 12.2189 4.63574C12.8231 5.23991 13.1252 5.97949 13.1252 6.85449C13.1252 7.72949 12.8231 8.46908 12.2189 9.07324C11.6147 9.67741 10.8752 9.97949 10.0002 9.97949ZM13.3335 16.667V11.792C13.6529 11.8892 13.9689 11.9969 14.2814 12.1149C14.5939 12.233 14.9099 12.3614 15.2293 12.5003C15.6738 12.6948 16.0245 12.9899 16.2814 13.3857C16.5384 13.7816 16.6668 14.2225 16.6668 14.7087V16.042C16.6668 16.2225 16.6078 16.3719 16.4897 16.4899C16.3717 16.608 16.2224 16.667 16.0418 16.667H13.3335ZM7.91683 13.9587V11.4587C8.26405 11.3892 8.6078 11.3371 8.94808 11.3024C9.28836 11.2677 9.63905 11.2503 10.0002 11.2503C10.3613 11.2503 10.712 11.2677 11.0522 11.3024C11.3925 11.3371 11.7363 11.3892 12.0835 11.4587V13.9587H7.91683ZM3.3335 16.042V14.7087C3.3335 14.2225 3.4585 13.7816 3.7085 13.3857C3.9585 12.9899 4.30572 12.6948 4.75016 12.5003C5.06961 12.3614 5.38905 12.233 5.7085 12.1149C6.02794 11.9969 6.34738 11.8823 6.66683 11.7712V16.667H3.9585C3.77794 16.667 3.62863 16.608 3.51058 16.4899C3.39252 16.3719 3.3335 16.2225 3.3335 16.042Z" fill="#33A833"/>
</g>
</svg>
