<svg width="20" height="20" viewBox="0 0 20 20" fill="none" xmlns="http://www.w3.org/2000/svg">
<path d="M9.99992 9.97949C9.12492 9.97949 8.38533 9.67741 7.78117 9.07324C7.177 8.46908 6.87492 7.72949 6.87492 6.85449C6.87492 5.97949 7.177 5.23991 7.78117 4.63574C8.38533 4.03158 9.12492 3.72949 9.99992 3.72949C10.8749 3.72949 11.6145 4.03158 12.2187 4.63574C12.8228 5.23991 13.1249 5.97949 13.1249 6.85449C13.1249 7.72949 12.8228 8.46908 12.2187 9.07324C11.6145 9.67741 10.8749 9.97949 9.99992 9.97949ZM13.3333 16.667V11.792C13.6527 11.8892 13.9687 11.9969 14.2812 12.1149C14.5937 12.233 14.9096 12.3614 15.2291 12.5003C15.6735 12.6948 16.0242 12.9899 16.2812 13.3857C16.5381 13.7816 16.6666 14.2225 16.6666 14.7087V16.042C16.6666 16.2225 16.6076 16.3719 16.4895 16.4899C16.3714 16.608 16.2221 16.667 16.0416 16.667H13.3333ZM7.91658 13.9587V11.4587C8.26381 11.3892 8.60756 11.3371 8.94783 11.3024C9.28811 11.2677 9.63881 11.2503 9.99992 11.2503C10.361 11.2503 10.7117 11.2677 11.052 11.3024C11.3923 11.3371 11.736 11.3892 12.0833 11.4587V13.9587H7.91658ZM3.33325 16.042V14.7087C3.33325 14.2225 3.45825 13.7816 3.70825 13.3857C3.95825 12.9899 4.30547 12.6948 4.74992 12.5003C5.06936 12.3614 5.38881 12.233 5.70825 12.1149C6.0277 11.9969 6.34714 11.8823 6.66658 11.7712V16.667H3.95825C3.7777 16.667 3.62839 16.608 3.51034 16.4899C3.39228 16.3719 3.33325 16.2225 3.33325 16.042Z" fill="#33A833"/>
</svg>
