<svg width="28" height="28" viewBox="0 0 28 28" fill="none" xmlns="http://www.w3.org/2000/svg">
<path d="M14 13.9708C12.775 13.9708 11.7396 13.5479 10.8938 12.7021C10.0479 11.8562 9.625 10.8208 9.625 9.59583C9.625 8.37083 10.0479 7.33541 10.8938 6.48958C11.7396 5.64374 12.775 5.22083 14 5.22083C15.225 5.22083 16.2604 5.64374 17.1063 6.48958C17.9521 7.33541 18.375 8.37083 18.375 9.59583C18.375 10.8208 17.9521 11.8562 17.1063 12.7021C16.2604 13.5479 15.225 13.9708 14 13.9708ZM18.6667 23.3333V16.5083C19.1139 16.6444 19.5563 16.7951 19.9938 16.9604C20.4313 17.1257 20.8736 17.3055 21.3208 17.5C21.9431 17.7722 22.434 18.1854 22.7938 18.7396C23.1535 19.2937 23.3333 19.9111 23.3333 20.5917V22.4583C23.3333 22.7111 23.2507 22.9201 23.0854 23.0854C22.9201 23.2507 22.7111 23.3333 22.4583 23.3333H18.6667ZM11.0833 19.5417V16.0417C11.5694 15.9444 12.0507 15.8715 12.5271 15.8229C13.0035 15.7743 13.4944 15.75 14 15.75C14.5056 15.75 14.9965 15.7743 15.4729 15.8229C15.9493 15.8715 16.4306 15.9444 16.9167 16.0417V19.5417H11.0833ZM4.66667 22.4583V20.5917C4.66667 19.9111 4.84167 19.2937 5.19167 18.7396C5.54167 18.1854 6.02778 17.7722 6.65 17.5C7.09723 17.3055 7.54445 17.1257 7.99167 16.9604C8.43889 16.7951 8.88612 16.6347 9.33334 16.4792V23.3333H5.54167C5.28889 23.3333 5.07987 23.2507 4.91459 23.0854C4.74931 22.9201 4.66667 22.7111 4.66667 22.4583Z" fill="#455A64"/>
</svg>
