<svg width="20" height="20" viewBox="0 0 20 20" fill="none" xmlns="http://www.w3.org/2000/svg">
<g id="search_FILL1_wght400_GRAD0_opsz48 1">
<path id="Vector" d="M7.875 13.1462C6.37275 13.1462 5.10135 12.6253 4.06081 11.5837C3.02027 10.542 2.5 9.28505 2.5 7.81283C2.5 6.3406 3.02083 5.08366 4.0625 4.04199C5.10417 3.00033 6.36458 2.47949 7.84375 2.47949C9.32292 2.47949 10.5799 3.00033 11.6146 4.04199C12.6493 5.08366 13.1667 6.34165 13.1667 7.81595C13.1667 8.41109 13.0694 8.98644 12.875 9.54199C12.6806 10.0975 12.3889 10.6184 12 11.1045L17.0417 16.1045C17.1667 16.2233 17.2292 16.3746 17.2292 16.5582C17.2292 16.7418 17.1667 16.8962 17.0417 17.0212C16.9167 17.1462 16.7623 17.2087 16.5787 17.2087C16.3951 17.2087 16.2438 17.1462 16.125 17.0212L11.1042 12.0003C10.6875 12.3614 10.2017 12.6427 9.64669 12.8441C9.0917 13.0455 8.50114 13.1462 7.875 13.1462ZM7.85417 11.8962C8.98264 11.8962 9.94184 11.4969 10.7318 10.6982C11.5217 9.89963 11.9167 8.93783 11.9167 7.81283C11.9167 6.68783 11.5217 5.72602 10.7318 4.92741C9.94184 4.1288 8.98264 3.72949 7.85417 3.72949C6.71413 3.72949 5.74508 4.1288 4.94704 4.92741C4.14901 5.72602 3.75 6.68783 3.75 7.81283C3.75 8.93783 4.14901 9.89963 4.94704 10.6982C5.74508 11.4969 6.71413 11.8962 7.85417 11.8962Z" fill="#78909C"/>
</g>
</svg>
