<svg width="11" height="20" viewBox="0 0 11 20" fill="none" xmlns="http://www.w3.org/2000/svg">
<path d="M2.225 9.95L10.1 2.075C10.2833 1.89167 10.375 1.6625 10.375 1.3875C10.375 1.1125 10.2833 0.875 10.1 0.675C9.9 0.475 9.6625 0.375 9.3875 0.375C9.1125 0.375 8.875 0.475 8.675 0.675L0.450001 8.9C0.3 9.05 0.191668 9.21667 0.125001 9.4C0.0583344 9.58333 0.0250006 9.76667 0.0250006 9.95C0.0250006 10.1333 0.0583344 10.3167 0.125001 10.5C0.191668 10.6833 0.3 10.85 0.450001 11L8.7 19.25C8.9 19.45 9.13333 19.5458 9.4 19.5375C9.66667 19.5292 9.9 19.425 10.1 19.225C10.2833 19.025 10.3792 18.7917 10.3875 18.525C10.3958 18.2583 10.3 18.025 10.1 17.825L2.225 9.95Z" fill="black"/>
</svg>
