<svg width="93" height="40" viewBox="0 0 93 40" fill="none" xmlns="http://www.w3.org/2000/svg">
<g clip-path="url(#clip0_259_2105)">
<path d="M22.0592 34.7797C19.0256 36.2339 15.9459 36.4108 12.8198 35.3106C9.69382 34.2104 7.40375 32.1435 5.94964 29.11C4.7068 26.5172 4.40728 23.8469 5.05107 21.0991C5.69486 18.3513 7.14375 16.1024 9.39774 14.3523C8.66148 14.5458 7.92318 14.6686 7.18285 14.7205C6.44251 14.7725 5.70796 14.6702 4.9792 14.4138C3.8928 14.0098 2.9903 13.3743 2.27171 12.5071C1.55312 11.6399 0.94526 10.6878 0.448126 9.65067L0.112561 8.95062C2.31749 7.82993 4.58724 7.64269 6.92182 8.38891C9.2564 9.13512 10.9389 10.6164 11.9694 12.8327C11.798 11.5438 11.8129 10.2612 12.0142 8.98495C12.2155 7.7087 12.5322 6.45688 12.9642 5.22949C13.0857 4.88428 13.302 4.63711 13.6131 4.48797C13.9242 4.33883 14.2524 4.32501 14.5976 4.4465C14.9428 4.568 15.19 4.78431 15.3391 5.09544C15.4883 5.40658 15.5021 5.73474 15.3806 6.07995C15.0431 7.03885 14.7953 8.01854 14.6372 9.01901C14.479 10.0195 14.4173 11.0216 14.452 12.0252C17.1875 11.4792 19.7828 11.8215 22.2379 13.052C24.6931 14.2825 26.5234 16.1552 27.7289 18.6702C29.1831 21.7037 29.36 24.7835 28.2598 27.9095C27.1596 31.0356 25.0927 33.3256 22.0592 34.7797Z" fill="url(#paint0_linear_259_2105)"/>
<path d="M41.955 17.9653V20.316H37.0476V22.8555H40.7195V25.1376H37.0476V30.0107H34.1134V17.9653H41.955ZM48.1986 30.148C47.2606 30.148 46.4141 29.9478 45.6591 29.5475C44.9156 29.1471 44.3265 28.5751 43.8918 27.8316C43.4685 27.088 43.2569 26.2186 43.2569 25.2234C43.2569 24.2397 43.4742 23.376 43.9089 22.6325C44.3436 21.8775 44.9385 21.2998 45.6935 20.8994C46.4484 20.499 47.2949 20.2989 48.233 20.2989C49.171 20.2989 50.0175 20.499 50.7725 20.8994C51.5274 21.2998 52.1223 21.8775 52.557 22.6325C52.9917 23.376 53.209 24.2397 53.209 25.2234C53.209 26.2072 52.9859 27.0766 52.5398 27.8316C52.1051 28.5751 51.5046 29.1471 50.7381 29.5475C49.9832 29.9478 49.1367 30.148 48.1986 30.148ZM48.1986 27.6085C48.7592 27.6085 49.2339 27.4026 49.6228 26.9908C50.0232 26.579 50.2234 25.9899 50.2234 25.2234C50.2234 24.457 50.0289 23.8679 49.64 23.4561C49.2625 23.0443 48.7935 22.8384 48.233 22.8384C47.661 22.8384 47.1863 23.0443 46.8088 23.4561C46.4313 23.8565 46.2425 24.4456 46.2425 25.2234C46.2425 25.9899 46.4256 26.579 46.7916 26.9908C47.1691 27.4026 47.6381 27.6085 48.1986 27.6085ZM59.4671 30.148C58.5291 30.148 57.6826 29.9478 56.9276 29.5475C56.1841 29.1471 55.595 28.5751 55.1603 27.8316C54.737 27.088 54.5254 26.2186 54.5254 25.2234C54.5254 24.2397 54.7428 23.376 55.1774 22.6325C55.6121 21.8775 56.207 21.2998 56.962 20.8994C57.7169 20.499 58.5634 20.2989 59.5015 20.2989C60.4395 20.2989 61.286 20.499 62.041 20.8994C62.796 21.2998 63.3908 21.8775 63.8255 22.6325C64.2602 23.376 64.4775 24.2397 64.4775 25.2234C64.4775 26.2072 64.2545 27.0766 63.8083 27.8316C63.3736 28.5751 62.7731 29.1471 62.0066 29.5475C61.2517 29.9478 60.4052 30.148 59.4671 30.148ZM59.4671 27.6085C60.0277 27.6085 60.5024 27.4026 60.8913 26.9908C61.2917 26.579 61.4919 25.9899 61.4919 25.2234C61.4919 24.457 61.2974 23.8679 60.9085 23.4561C60.531 23.0443 60.062 22.8384 59.5015 22.8384C58.9295 22.8384 58.4548 23.0443 58.0773 23.4561C57.6998 23.8565 57.511 24.4456 57.511 25.2234C57.511 25.9899 57.6941 26.579 58.0601 26.9908C58.4376 27.4026 58.9066 27.6085 59.4671 27.6085ZM65.7939 25.2063C65.7939 24.2225 65.9769 23.3588 66.343 22.6153C66.7205 21.8718 67.2295 21.2998 67.8701 20.8994C68.5107 20.499 69.2257 20.2989 70.015 20.2989C70.6441 20.2989 71.2161 20.4304 71.7309 20.6935C72.2571 20.9566 72.6689 21.3112 72.9663 21.7574V17.3132H75.9005V30.0107H72.9663V28.638C72.6918 29.0956 72.2971 29.4617 71.7823 29.7362C71.279 30.0107 70.6899 30.148 70.015 30.148C69.2257 30.148 68.5107 29.9478 67.8701 29.5475C67.2295 29.1356 66.7205 28.558 66.343 27.8144C65.9769 27.0594 65.7939 26.19 65.7939 25.2063ZM72.9663 25.2234C72.9663 24.4913 72.7604 23.9136 72.3486 23.4904C71.9482 23.0671 71.4563 22.8555 70.8729 22.8555C70.2895 22.8555 69.7919 23.0671 69.3801 23.4904C68.9797 23.9022 68.7795 24.4742 68.7795 25.2063C68.7795 25.9384 68.9797 26.5218 69.3801 26.9565C69.7919 27.3797 70.2895 27.5914 70.8729 27.5914C71.4563 27.5914 71.9482 27.3797 72.3486 26.9565C72.7604 26.5332 72.9663 25.9555 72.9663 25.2234ZM79.5846 19.3036C79.23 19.3036 78.9326 19.1835 78.6924 18.9433C78.4522 18.7031 78.332 18.4057 78.332 18.0511C78.332 17.6964 78.4522 17.399 78.6924 17.1588C78.9326 16.9186 79.23 16.7985 79.5846 16.7985C79.9278 16.7985 80.2195 16.9186 80.4597 17.1588C80.7 17.399 80.8201 17.6964 80.8201 18.0511C80.8201 18.4057 80.7 18.7031 80.4597 18.9433C80.2195 19.1835 79.9278 19.3036 79.5846 19.3036ZM80.5455 20.5562V30.0107H78.5894V20.5562H80.5455ZM92.1221 25.0518C92.1221 25.4065 92.0992 25.7268 92.0535 26.0127H84.8296C84.8868 26.7677 85.1671 27.374 85.6704 27.8316C86.1737 28.2891 86.7914 28.5179 87.5235 28.5179C88.5759 28.5179 89.3195 28.0775 89.7542 27.1967H91.8647C91.5787 28.0661 91.0582 28.781 90.3033 29.3415C89.5597 29.8906 88.6331 30.1652 87.5235 30.1652C86.6198 30.1652 85.8076 29.965 85.087 29.5646C84.3777 29.1528 83.8172 28.5808 83.4054 27.8487C83.005 27.1052 82.8049 26.2472 82.8049 25.2749C82.8049 24.3026 82.9993 23.4504 83.3883 22.7183C83.7886 21.9747 84.3434 21.4027 85.0527 21.0024C85.7733 20.602 86.597 20.4018 87.5235 20.4018C88.4158 20.4018 89.2108 20.5963 89.9086 20.9852C90.6064 21.3741 91.1498 21.9232 91.5387 22.6325C91.9276 23.3302 92.1221 24.1367 92.1221 25.0518ZM90.0802 24.4341C90.0688 23.7135 89.8114 23.1358 89.308 22.7011C88.8047 22.2664 88.1813 22.0491 87.4377 22.0491C86.7628 22.0491 86.1851 22.2664 85.7047 22.7011C85.2242 23.1243 84.9383 23.702 84.8468 24.4341H90.0802Z" fill="#5BBD59"/>
</g>
<defs>
<linearGradient id="paint0_linear_259_2105" x1="7.88965" y1="5.21955" x2="34.8085" y2="10.4907" gradientUnits="userSpaceOnUse">
<stop stop-color="#52BF50"/>
<stop offset="1" stop-color="#BAFF62"/>
</linearGradient>
<clipPath id="clip0_259_2105">
<rect width="93" height="40" fill="white"/>
</clipPath>
</defs>
</svg>
