<svg width="11" height="20" viewBox="0 0 11 20" fill="none" xmlns="http://www.w3.org/2000/svg">
<path d="M8.775 9.95L0.9 2.075C0.716666 1.89167 0.625 1.6625 0.625 1.3875C0.625 1.1125 0.716666 0.875 0.9 0.675C1.1 0.475 1.3375 0.375 1.6125 0.375C1.8875 0.375 2.125 0.475 2.325 0.675L10.55 8.9C10.7 9.05 10.8083 9.21667 10.875 9.4C10.9417 9.58333 10.975 9.76667 10.975 9.95C10.975 10.1333 10.9417 10.3167 10.875 10.5C10.8083 10.6833 10.7 10.85 10.55 11L2.3 19.25C2.1 19.45 1.86667 19.5458 1.6 19.5375C1.33333 19.5292 1.1 19.425 0.9 19.225C0.716666 19.025 0.620833 18.7917 0.6125 18.525C0.604166 18.2583 0.7 18.025 0.9 17.825L8.775 9.95Z" fill="black"/>
</svg>
