<svg width="20" height="20" viewBox="0 0 20 20" fill="none" xmlns="http://www.w3.org/2000/svg">
<path d="M7.875 13.1458C6.37275 13.1458 5.10135 12.625 4.06081 11.5833C3.02027 10.5416 2.5 9.28468 2.5 7.81246C2.5 6.34024 3.02083 5.08329 4.0625 4.04163C5.10417 2.99996 6.36458 2.47913 7.84375 2.47913C9.32292 2.47913 10.5799 2.99996 11.6146 4.04163C12.6493 5.08329 13.1667 6.34128 13.1667 7.81559C13.1667 8.41072 13.0694 8.98607 12.875 9.54163C12.6806 10.0972 12.3889 10.618 12 11.1041L17.0417 16.1041C17.1667 16.223 17.2292 16.3742 17.2292 16.5578C17.2292 16.7415 17.1667 16.8958 17.0417 17.0208C16.9167 17.1458 16.7623 17.2083 16.5787 17.2083C16.3951 17.2083 16.2438 17.1458 16.125 17.0208L11.1042 12C10.6875 12.3611 10.2017 12.6423 9.64669 12.8437C9.0917 13.0451 8.50114 13.1458 7.875 13.1458ZM7.85417 11.8958C8.98264 11.8958 9.94184 11.4965 10.7318 10.6979C11.5217 9.89927 11.9167 8.93746 11.9167 7.81246C11.9167 6.68746 11.5217 5.72565 10.7318 4.92704C9.94184 4.12843 8.98264 3.72913 7.85417 3.72913C6.71413 3.72913 5.74508 4.12843 4.94704 4.92704C4.14901 5.72565 3.75 6.68746 3.75 7.81246C3.75 8.93746 4.14901 9.89927 4.94704 10.6979C5.74508 11.4965 6.71413 11.8958 7.85417 11.8958Z" fill="#78909C"/>
</svg>
