<svg width="24" height="24" viewBox="0 0 24 24" fill="none" xmlns="http://www.w3.org/2000/svg">
<path d="M15.6227 19.4813C15.9951 19.4813 16.3125 19.3487 16.575 19.0835C16.8375 18.8184 16.9687 18.4996 16.9687 18.1273C16.9687 17.7549 16.8375 17.4375 16.5749 17.175C16.3124 16.9125 15.9967 16.7813 15.628 16.7813C15.2593 16.7813 14.9406 16.9138 14.6719 17.179C14.4031 17.4441 14.2687 17.7629 14.2687 18.1352C14.2687 18.5076 14.4013 18.825 14.6665 19.0875C14.9316 19.35 15.2504 19.4813 15.6227 19.4813ZM8.12272 19.4813C8.49507 19.4813 8.8125 19.3487 9.075 19.0835C9.3375 18.8184 9.46875 18.4996 9.46875 18.1273C9.46875 17.7549 9.33747 17.4375 9.07492 17.175C8.81236 16.9125 8.49673 16.7813 8.12805 16.7813C7.75935 16.7813 7.44062 16.9138 7.17187 17.179C6.90312 17.4441 6.76875 17.7629 6.76875 18.1352C6.76875 18.5076 6.90132 18.825 7.16647 19.0875C7.43163 19.35 7.75038 19.4813 8.12272 19.4813ZM15.8062 15.5813C16.3312 15.5813 16.7094 15.4062 16.9406 15.0563C17.1719 14.7063 17.1687 14.3125 16.9312 13.875L15.7312 11.6625L18.5812 5.625H19.5C19.65 5.625 19.7781 5.56875 19.8844 5.45625C19.9906 5.34375 20.0437 5.20938 20.0437 5.05313C20.0437 4.89688 19.9898 4.76562 19.882 4.65938C19.7742 4.55313 19.6406 4.5 19.4812 4.5H18.2062C18.0937 4.5 17.9925 4.52772 17.9025 4.58316C17.8125 4.63859 17.745 4.71713 17.7 4.81875L17.1562 5.98125H6.1125C5.7125 5.98125 5.45937 6.10313 5.35312 6.34688C5.24687 6.59063 5.28125 6.8625 5.45625 7.1625L7.9875 11.7188C8.1125 11.9313 8.2875 12.1156 8.5125 12.2719C8.7375 12.4281 8.98125 12.5063 9.24375 12.5063H14.925L15.975 14.4563H7.3125C7.1625 14.4563 7.03437 14.5125 6.92812 14.625C6.82187 14.7375 6.76875 14.8719 6.76875 15.0281C6.76875 15.1844 6.82265 15.3156 6.93047 15.4219C7.03828 15.5281 7.17187 15.5813 7.33125 15.5813H15.8062Z" fill="#33A833"/>
<rect x="0.5" y="0.5" width="23" height="23" rx="3.5" stroke="#33A833"/>
</svg>
