<svg width="18" height="18" viewBox="0 0 18 18" fill="none" xmlns="http://www.w3.org/2000/svg">
<path d="M4.89375 15.75C4.58438 15.75 4.31953 15.6398 4.09922 15.4195C3.87891 15.1992 3.76875 14.9344 3.76875 14.625V3.9375H3.5625C3.40313 3.9375 3.26953 3.88328 3.16172 3.77484C3.05391 3.66639 3 3.53202 3 3.37172C3 3.21141 3.05391 3.07813 3.16172 2.97188C3.26953 2.86563 3.40313 2.8125 3.5625 2.8125H6.525C6.525 2.65 6.57891 2.51562 6.68672 2.40938C6.79453 2.30313 6.92813 2.25 7.0875 2.25H10.9125C11.0719 2.25 11.2055 2.30391 11.3133 2.41172C11.4211 2.51953 11.475 2.65313 11.475 2.8125H14.4375C14.5969 2.8125 14.7305 2.86672 14.8383 2.97516C14.9461 3.08361 15 3.21798 15 3.37828C15 3.53859 14.9461 3.67188 14.8383 3.77813C14.7305 3.88438 14.5969 3.9375 14.4375 3.9375H14.2313V14.625C14.2313 14.9344 14.1211 15.1992 13.9008 15.4195C13.6805 15.6398 13.4156 15.75 13.1063 15.75H4.89375ZM13.1063 3.9375H4.89375V14.625H13.1063V3.9375ZM9 10.125L10.8 11.9438C10.925 12.0688 11.075 12.1344 11.25 12.1406C11.425 12.1469 11.575 12.0844 11.7 11.9531C11.825 11.8219 11.8875 11.6719 11.8875 11.5031C11.8875 11.3344 11.825 11.1875 11.7 11.0625L9.9 9.225L11.7 7.3875C11.825 7.2625 11.8875 7.11563 11.8875 6.94688C11.8875 6.77813 11.825 6.63125 11.7 6.50625C11.575 6.38125 11.425 6.31875 11.25 6.31875C11.075 6.31875 10.925 6.38125 10.8 6.50625L9 8.325L7.21875 6.50625C7.09375 6.38125 6.94375 6.31875 6.76875 6.31875C6.59375 6.31875 6.44375 6.38125 6.31875 6.50625C6.19375 6.63125 6.13125 6.78125 6.13125 6.95625C6.13125 7.13125 6.19375 7.28125 6.31875 7.40625L8.11875 9.225L6.31875 11.0438C6.19375 11.1688 6.13125 11.3188 6.13125 11.4938C6.13125 11.6688 6.19375 11.8188 6.31875 11.9438C6.44375 12.0688 6.59375 12.1313 6.76875 12.1313C6.94375 12.1313 7.09375 12.0688 7.21875 11.9438L9 10.125Z" fill="#33A833"/>
</svg>
