<svg width="32" height="32" viewBox="0 0 32 32" fill="none" xmlns="http://www.w3.org/2000/svg">
<circle cx="16" cy="16" r="15.3333" stroke="#33A833" stroke-width="1.33333"/>
<path d="M11.752 24H8.2768V13.3176H11.752V24ZM10.0125 11.8604C8.90127 11.8604 7.99992 10.9819 7.99992 9.92111C7.99992 9.4116 8.21196 8.92296 8.5894 8.56268C8.96684 8.2024 9.47875 8 10.0125 8C10.5463 8 11.0582 8.2024 11.4356 8.56268C11.8131 8.92296 12.0251 9.4116 12.0251 9.92111C12.0251 10.9819 11.1234 11.8604 10.0125 11.8604ZM24.7585 24H21.2908V18.7999C21.2908 17.5606 21.2646 15.9712 19.484 15.9712C17.6772 15.9712 17.4003 17.3177 17.4003 18.7106V24H13.9288V13.3176H17.2618V14.7748H17.3105C17.7744 13.9355 18.9078 13.0498 20.5986 13.0498C24.1157 13.0498 24.7622 15.2605 24.7622 18.132V24H24.7585Z" fill="#33A833"/>
</svg>
