<svg width="32" height="32" viewBox="0 0 32 32" fill="none" xmlns="http://www.w3.org/2000/svg">
<circle cx="16" cy="16" r="15.3333" stroke="#33A833" stroke-width="1.33333"/>
<g clip-path="url(#clip0_260_1054)">
<path d="M21.2276 12.7415C21.2365 12.8836 21.2365 13.0258 21.2365 13.1679C21.2365 17.5029 18.3495 22.4978 13.0728 22.4978C11.4472 22.4978 9.93706 21.9597 8.66675 21.0258C8.89772 21.0562 9.11978 21.0664 9.35964 21.0664C10.701 21.0664 11.9358 20.5486 12.9218 19.6654C11.6604 19.6349 10.6033 18.6907 10.2391 17.3912C10.4167 17.4217 10.5944 17.442 10.781 17.442C11.0386 17.442 11.2962 17.4014 11.536 17.3303C10.2213 17.0257 9.23525 15.706 9.23525 14.1121V14.0715C9.61722 14.3151 10.0614 14.4674 10.5322 14.4877C9.75935 13.8988 9.25303 12.8938 9.25303 11.7567C9.25303 11.1476 9.39513 10.5892 9.64388 10.1019C11.0563 12.0917 13.1794 13.3912 15.5601 13.5334C15.5157 13.2897 15.489 13.0359 15.489 12.7821C15.489 10.975 16.7682 9.50293 18.3583 9.50293C19.1845 9.50293 19.9307 9.89887 20.4548 10.5385C21.1032 10.3963 21.7251 10.1222 22.2758 9.74659C22.0626 10.508 21.6096 11.1476 21.0144 11.5537C21.5918 11.4826 22.1515 11.2999 22.6667 11.0461C22.2759 11.6958 21.7873 12.2745 21.2276 12.7415Z" fill="#33A833"/>
</g>
<defs>
<clipPath id="clip0_260_1054">
<rect width="14" height="16" fill="white" transform="translate(8.66675 8)"/>
</clipPath>
</defs>
</svg>
