<svg width="46" height="42" viewBox="0 0 46 42" fill="none" xmlns="http://www.w3.org/2000/svg">
<path d="M26.8332 3.5H11.4998C10.4832 3.5 9.50815 3.86875 8.78926 4.52513C8.07037 5.1815 7.6665 6.07174 7.6665 7V35C7.6665 35.9283 8.07037 36.8185 8.78926 37.4749C9.50815 38.1313 10.4832 38.5 11.4998 38.5H34.4998C35.5165 38.5 36.4915 38.1313 37.2104 37.4749C37.9293 36.8185 38.3332 35.9283 38.3332 35V14L26.8332 3.5Z" stroke="#191D23" stroke-width="2" stroke-linecap="round" stroke-linejoin="round"/>
<path d="M30.6668 29.75H15.3335" stroke="#191D23" stroke-width="2" stroke-linecap="round" stroke-linejoin="round"/>
<path d="M30.6668 22.75H15.3335" stroke="#191D23" stroke-width="2" stroke-linecap="round" stroke-linejoin="round"/>
<path d="M19.1668 15.75H17.2502H15.3335" stroke="#191D23" stroke-width="2" stroke-linecap="round" stroke-linejoin="round"/>
<path d="M26.8335 3.5V14H38.3335" stroke="#191D23" stroke-width="2" stroke-linecap="round" stroke-linejoin="round"/>
</svg>
