<svg width="60" height="62" viewBox="0 0 60 62" fill="none" xmlns="http://www.w3.org/2000/svg">
<rect width="60" height="62" fill="#F5F5F5"/>
<g id="iPhone 8 - 8" clip-path="url(#clip0_130_301)">
<rect width="375" height="880" transform="translate(-116 -525)" fill="white"/>
<rect id="Rectangle 1390" x="-99.5" y="-202.5" width="342" height="441" rx="19.5" stroke="black" stroke-opacity="0.34"/>
<rect id="Rectangle 1393" x="-100" y="14" width="344" height="3" fill="#D9D9D9"/>
<path id="Jam&#195;&#179;n de Pavo" d="M-74.1 57.16C-74.9267 57.16 -75.7 56.9867 -76.42 56.64C-77.14 56.2933 -77.7267 55.7933 -78.18 55.14L-77.02 53.78C-76.6333 54.3133 -76.2 54.7267 -75.72 55.02C-75.2267 55.3 -74.6867 55.44 -74.1 55.44C-72.5 55.44 -71.7 54.4933 -71.7 52.6V44.74H-76.76V43H-69.72V52.5C-69.72 54.06 -70.0933 55.2267 -70.84 56C-71.5733 56.7733 -72.66 57.16 -74.1 57.16ZM-59.3461 57V54.76L-59.4461 54.34V50.52C-59.4461 49.7067 -59.6861 49.08 -60.1661 48.64C-60.6328 48.1867 -61.3394 47.96 -62.2861 47.96C-62.9128 47.96 -63.5261 48.0667 -64.1261 48.28C-64.7261 48.48 -65.2328 48.7533 -65.6461 49.1L-66.4461 47.66C-65.8994 47.22 -65.2461 46.8867 -64.4861 46.66C-63.7128 46.42 -62.9061 46.3 -62.0661 46.3C-60.6128 46.3 -59.4928 46.6533 -58.7061 47.36C-57.9194 48.0667 -57.5261 49.1467 -57.5261 50.6V57H-59.3461ZM-62.8261 57.12C-63.6128 57.12 -64.3061 56.9867 -64.9061 56.72C-65.4928 56.4533 -65.9461 56.0867 -66.2661 55.62C-66.5861 55.14 -66.7461 54.6 -66.7461 54C-66.7461 53.4267 -66.6128 52.9067 -66.3461 52.44C-66.0661 51.9733 -65.6194 51.6 -65.0061 51.32C-64.3794 51.04 -63.5394 50.9 -62.4861 50.9H-59.1261V52.28H-62.4061C-63.3661 52.28 -64.0128 52.44 -64.3461 52.76C-64.6794 53.08 -64.8461 53.4667 -64.8461 53.92C-64.8461 54.44 -64.6394 54.86 -64.2261 55.18C-63.8128 55.4867 -63.2394 55.64 -62.5061 55.64C-61.7861 55.64 -61.1594 55.48 -60.6261 55.16C-60.0794 54.84 -59.6861 54.3733 -59.4461 53.76L-59.0661 55.08C-59.3194 55.7067 -59.7661 56.2067 -60.4061 56.58C-61.0461 56.94 -61.8528 57.12 -62.8261 57.12ZM-40.713 46.3C-39.8596 46.3 -39.1063 46.4667 -38.453 46.8C-37.7996 47.1333 -37.293 47.64 -36.933 48.32C-36.5596 49 -36.373 49.86 -36.373 50.9V57H-38.293V51.12C-38.293 50.0933 -38.533 49.32 -39.013 48.8C-39.493 48.28 -40.1663 48.02 -41.033 48.02C-41.673 48.02 -42.233 48.1533 -42.713 48.42C-43.193 48.6867 -43.5663 49.08 -43.833 49.6C-44.0863 50.12 -44.213 50.7667 -44.213 51.54V57H-46.133V51.12C-46.133 50.0933 -46.373 49.32 -46.853 48.8C-47.3196 48.28 -47.993 48.02 -48.873 48.02C-49.4996 48.02 -50.053 48.1533 -50.533 48.42C-51.013 48.6867 -51.3863 49.08 -51.653 49.6C-51.9196 50.12 -52.053 50.7667 -52.053 51.54V57H-53.973V46.4H-52.133V49.22L-52.433 48.5C-52.0996 47.8067 -51.5863 47.2667 -50.893 46.88C-50.1996 46.4933 -49.393 46.3 -48.473 46.3C-47.4596 46.3 -46.5863 46.5533 -45.853 47.06C-45.1196 47.5533 -44.6396 48.3067 -44.413 49.32L-45.193 49C-44.873 48.1867 -44.313 47.5333 -43.513 47.04C-42.713 46.5467 -41.7796 46.3 -40.713 46.3ZM-28.3002 57.12C-29.3668 57.12 -30.3135 56.8867 -31.1402 56.42C-31.9668 55.9533 -32.6202 55.3133 -33.1002 54.5C-33.5802 53.6733 -33.8202 52.74 -33.8202 51.7C-33.8202 50.6467 -33.5802 49.7133 -33.1002 48.9C-32.6202 48.0867 -31.9668 47.4533 -31.1402 47C-30.3135 46.5333 -29.3668 46.3 -28.3002 46.3C-27.2468 46.3 -26.3068 46.5333 -25.4802 47C-24.6402 47.4533 -23.9868 48.0867 -23.5202 48.9C-23.0402 49.7 -22.8002 50.6333 -22.8002 51.7C-22.8002 52.7533 -23.0402 53.6867 -23.5202 54.5C-23.9868 55.3133 -24.6402 55.9533 -25.4802 56.42C-26.3068 56.8867 -27.2468 57.12 -28.3002 57.12ZM-28.3002 55.44C-27.6202 55.44 -27.0135 55.2867 -26.4802 54.98C-25.9335 54.6733 -25.5068 54.24 -25.2002 53.68C-24.8935 53.1067 -24.7402 52.4467 -24.7402 51.7C-24.7402 50.94 -24.8935 50.2867 -25.2002 49.74C-25.5068 49.18 -25.9335 48.7467 -26.4802 48.44C-27.0135 48.1333 -27.6202 47.98 -28.3002 47.98C-28.9802 47.98 -29.5868 48.1333 -30.1202 48.44C-30.6535 48.7467 -31.0802 49.18 -31.4002 49.74C-31.7202 50.2867 -31.8802 50.94 -31.8802 51.7C-31.8802 52.4467 -31.7202 53.1067 -31.4002 53.68C-31.0802 54.24 -30.6535 54.6733 -30.1202 54.98C-29.5868 55.2867 -28.9802 55.44 -28.3002 55.44ZM-29.8202 44.86L-27.1002 42.26H-24.6602L-28.0202 44.86H-29.8202ZM-14.4848 46.3C-13.6182 46.3 -12.8582 46.4667 -12.2048 46.8C-11.5382 47.1333 -11.0182 47.64 -10.6448 48.32C-10.2715 49 -10.0848 49.86 -10.0848 50.9V57H-12.0048V51.12C-12.0048 50.0933 -12.2582 49.32 -12.7648 48.8C-13.2582 48.28 -13.9582 48.02 -14.8648 48.02C-15.5448 48.02 -16.1382 48.1533 -16.6448 48.42C-17.1515 48.6867 -17.5448 49.08 -17.8248 49.6C-18.0915 50.12 -18.2248 50.7667 -18.2248 51.54V57H-20.1448V46.4H-18.3048V49.26L-18.6048 48.5C-18.2582 47.8067 -17.7248 47.2667 -17.0048 46.88C-16.2848 46.4933 -15.4448 46.3 -14.4848 46.3ZM3.21953 57.12C2.19286 57.12 1.27286 56.8933 0.459531 56.44C-0.340469 55.9867 -0.973802 55.3533 -1.44047 54.54C-1.90714 53.7267 -2.14047 52.78 -2.14047 51.7C-2.14047 50.62 -1.90714 49.68 -1.44047 48.88C-0.973802 48.0667 -0.340469 47.4333 0.459531 46.98C1.27286 46.5267 2.19286 46.3 3.21953 46.3C4.11286 46.3 4.91953 46.5 5.63953 46.9C6.35953 47.3 6.93286 47.9 7.35953 48.7C7.79953 49.5 8.01953 50.5 8.01953 51.7C8.01953 52.9 7.8062 53.9 7.37953 54.7C6.9662 55.5 6.39953 56.1067 5.67953 56.52C4.95953 56.92 4.13953 57.12 3.21953 57.12ZM3.37953 55.44C4.0462 55.44 4.6462 55.2867 5.17953 54.98C5.7262 54.6733 6.15287 54.24 6.45953 53.68C6.77953 53.1067 6.93953 52.4467 6.93953 51.7C6.93953 50.94 6.77953 50.2867 6.45953 49.74C6.15287 49.18 5.7262 48.7467 5.17953 48.44C4.6462 48.1333 4.0462 47.98 3.37953 47.98C2.69953 47.98 2.09286 48.1333 1.55953 48.44C1.0262 48.7467 0.599531 49.18 0.279531 49.74C-0.0404686 50.2867 -0.200468 50.94 -0.200468 51.7C-0.200468 52.4467 -0.0404686 53.1067 0.279531 53.68C0.599531 54.24 1.0262 54.6733 1.55953 54.98C2.09286 55.2867 2.69953 55.44 3.37953 55.44ZM6.99953 57V54.14L7.11953 51.68L6.91953 49.22V42.16H8.83953V57H6.99953ZM17.1923 57.12C16.059 57.12 15.059 56.8867 14.1923 56.42C13.339 55.9533 12.6723 55.3133 12.1923 54.5C11.7257 53.6867 11.4923 52.7533 11.4923 51.7C11.4923 50.6467 11.719 49.7133 12.1723 48.9C12.639 48.0867 13.2723 47.4533 14.0723 47C14.8857 46.5333 15.799 46.3 16.8123 46.3C17.839 46.3 18.7457 46.5267 19.5323 46.98C20.319 47.4333 20.9323 48.0733 21.3723 48.9C21.8257 49.7133 22.0523 50.6667 22.0523 51.76C22.0523 51.84 22.0457 51.9333 22.0323 52.04C22.0323 52.1467 22.0257 52.2467 22.0123 52.34H12.9923V50.96H21.0123L20.2323 51.44C20.2457 50.76 20.1057 50.1533 19.8123 49.62C19.519 49.0867 19.1123 48.6733 18.5923 48.38C18.0857 48.0733 17.4923 47.92 16.8123 47.92C16.1457 47.92 15.5523 48.0733 15.0323 48.38C14.5123 48.6733 14.1057 49.0933 13.8123 49.64C13.519 50.1733 13.3723 50.7867 13.3723 51.48V51.8C13.3723 52.5067 13.5323 53.14 13.8523 53.7C14.1857 54.2467 14.6457 54.6733 15.2323 54.98C15.819 55.2867 16.4923 55.44 17.2523 55.44C17.879 55.44 18.4457 55.3333 18.9523 55.12C19.4723 54.9067 19.9257 54.5867 20.3123 54.16L21.3723 55.4C20.8923 55.96 20.2923 56.3867 19.5723 56.68C18.8657 56.9733 18.0723 57.12 17.1923 57.12ZM30.3695 57V43H35.8295C37.0562 43 38.1029 43.1933 38.9695 43.58C39.8362 43.9667 40.5029 44.5267 40.9695 45.26C41.4362 45.9933 41.6695 46.8667 41.6695 47.88C41.6695 48.8933 41.4362 49.7667 40.9695 50.5C40.5029 51.22 39.8362 51.78 38.9695 52.18C38.1029 52.5667 37.0562 52.76 35.8295 52.76H31.4695L32.3695 51.82V57H30.3695ZM32.3695 52.02L31.4695 51.02H35.7695C37.0495 51.02 38.0162 50.7467 38.6695 50.2C39.3362 49.6533 39.6695 48.88 39.6695 47.88C39.6695 46.88 39.3362 46.1067 38.6695 45.56C38.0162 45.0133 37.0495 44.74 35.7695 44.74H31.4695L32.3695 43.74V52.02ZM50.8102 57V54.76L50.7102 54.34V50.52C50.7102 49.7067 50.4702 49.08 49.9902 48.64C49.5235 48.1867 48.8168 47.96 47.8702 47.96C47.2435 47.96 46.6302 48.0667 46.0302 48.28C45.4302 48.48 44.9235 48.7533 44.5102 49.1L43.7102 47.66C44.2568 47.22 44.9102 46.8867 45.6702 46.66C46.4435 46.42 47.2502 46.3 48.0902 46.3C49.5435 46.3 50.6635 46.6533 51.4502 47.36C52.2368 48.0667 52.6302 49.1467 52.6302 50.6V57H50.8102ZM47.3302 57.12C46.5435 57.12 45.8502 56.9867 45.2502 56.72C44.6635 56.4533 44.2102 56.0867 43.8902 55.62C43.5702 55.14 43.4102 54.6 43.4102 54C43.4102 53.4267 43.5435 52.9067 43.8102 52.44C44.0902 51.9733 44.5368 51.6 45.1502 51.32C45.7768 51.04 46.6168 50.9 47.6702 50.9H51.0302V52.28H47.7502C46.7902 52.28 46.1435 52.44 45.8102 52.76C45.4768 53.08 45.3102 53.4667 45.3102 53.92C45.3102 54.44 45.5168 54.86 45.9302 55.18C46.3435 55.4867 46.9168 55.64 47.6502 55.64C48.3702 55.64 48.9968 55.48 49.5302 55.16C50.0768 54.84 50.4702 54.3733 50.7102 53.76L51.0902 55.08C50.8368 55.7067 50.3902 56.2067 49.7502 56.58C49.1102 56.94 48.3035 57.12 47.3302 57.12ZM58.768 57L54.128 46.4H56.128L60.248 56H59.288L63.488 46.4H65.368L60.728 57H58.768ZM71.4069 57.12C70.3402 57.12 69.3935 56.8867 68.5669 56.42C67.7402 55.9533 67.0869 55.3133 66.6069 54.5C66.1269 53.6733 65.8869 52.74 65.8869 51.7C65.8869 50.6467 66.1269 49.7133 66.6069 48.9C67.0869 48.0867 67.7402 47.4533 68.5669 47C69.3935 46.5333 70.3402 46.3 71.4069 46.3C72.4602 46.3 73.4002 46.5333 74.2269 47C75.0669 47.4533 75.7202 48.0867 76.1869 48.9C76.6669 49.7 76.9069 50.6333 76.9069 51.7C76.9069 52.7533 76.6669 53.6867 76.1869 54.5C75.7202 55.3133 75.0669 55.9533 74.2269 56.42C73.4002 56.8867 72.4602 57.12 71.4069 57.12ZM71.4069 55.44C72.0869 55.44 72.6935 55.2867 73.2269 54.98C73.7735 54.6733 74.2002 54.24 74.5069 53.68C74.8135 53.1067 74.9669 52.4467 74.9669 51.7C74.9669 50.94 74.8135 50.2867 74.5069 49.74C74.2002 49.18 73.7735 48.7467 73.2269 48.44C72.6935 48.1333 72.0869 47.98 71.4069 47.98C70.7269 47.98 70.1202 48.1333 69.5869 48.44C69.0535 48.7467 68.6269 49.18 68.3069 49.74C67.9869 50.2867 67.8269 50.94 67.8269 51.7C67.8269 52.4467 67.9869 53.1067 68.3069 53.68C68.6269 54.24 69.0535 54.6733 69.5869 54.98C70.1202 55.2867 70.7269 55.44 71.4069 55.44Z" fill="black"/>
<g id="Rectangle 1397">
<rect x="-102" y="-396" width="345" height="585" rx="20" fill="white"/>
<rect x="-101.5" y="-395.5" width="344" height="584" rx="19.5" stroke="black" stroke-opacity="0.34"/>
</g>
<g id="create-sharp">
<path id="Vector" d="M54.4184 5.92612C54.183 5.66099 53.8978 5.4476 53.5801 5.2988C53.2623 5.15 52.9185 5.06888 52.5694 5.06033C52.2203 5.05177 51.8731 5.11596 51.5488 5.24903C51.2245 5.3821 50.9298 5.58128 50.6824 5.83458L48.5367 8.03266L52.1906 11.7784L54.3 9.6213C54.78 9.14021 55.0604 8.48693 55.0825 7.79818C55.1046 7.10944 54.8666 6.43862 54.4184 5.92612ZM29.6203 40.4691H20.625V31.2239L21.7266 30.0942L37.9148 13.4899H5.625V55.8858H46.875V22.699L30.7195 39.3369L29.6203 40.4691ZM46.875 17.2429L50.7176 13.2852L47.0742 9.5406L43.2246 13.4899H46.875V17.2429Z" fill="black"/>
<path id="Vector_2" d="M24.375 36.6143H28.0652L46.875 17.2423V13.4893H43.2246L24.375 32.8215V36.6143Z" fill="black"/>
</g>
</g>
<defs>
<clipPath id="clip0_130_301">
<rect width="375" height="880" fill="white" transform="translate(-116 -525)"/>
</clipPath>
</defs>
</svg>
