<svg width="40" height="39" viewBox="0 0 40 39" fill="none" xmlns="http://www.w3.org/2000/svg">
<path d="M20 3.64258C11.0398 3.64258 3.75 10.7241 3.75 19.4283C3.75 28.1324 11.0398 35.214 20 35.214C28.9602 35.214 36.25 28.1324 36.25 19.4283C36.25 10.7241 28.9602 3.64258 20 3.64258ZM26.25 20.6426H21.25V25.4997C21.25 25.8218 21.1183 26.1306 20.8839 26.3584C20.6495 26.5861 20.3315 26.714 20 26.714C19.6685 26.714 19.3505 26.5861 19.1161 26.3584C18.8817 26.1306 18.75 25.8218 18.75 25.4997V20.6426H13.75C13.4185 20.6426 13.1005 20.5146 12.8661 20.2869C12.6317 20.0592 12.5 19.7503 12.5 19.4283C12.5 19.1062 12.6317 18.7974 12.8661 18.5697C13.1005 18.3419 13.4185 18.214 13.75 18.214H18.75V13.3569C18.75 13.0348 18.8817 12.726 19.1161 12.4982C19.3505 12.2705 19.6685 12.1426 20 12.1426C20.3315 12.1426 20.6495 12.2705 20.8839 12.4982C21.1183 12.726 21.25 13.0348 21.25 13.3569V18.214H26.25C26.5815 18.214 26.8995 18.3419 27.1339 18.5697C27.3683 18.7974 27.5 19.1062 27.5 19.4283C27.5 19.7503 27.3683 20.0592 27.1339 20.2869C26.8995 20.5146 26.5815 20.6426 26.25 20.6426Z" fill="#33A833"/>
</svg>
