<svg width="60" height="47" viewBox="0 0 60 47" fill="none" xmlns="http://www.w3.org/2000/svg">
<path d="M50.625 8.654H39.375V6.49053C39.375 5.53423 38.8811 4.61708 38.0021 3.94087C37.123 3.26466 35.9307 2.88477 34.6875 2.88477H25.3125C24.0693 2.88477 22.877 3.26466 21.9979 3.94087C21.1189 4.61708 20.625 5.53423 20.625 6.49053V8.654H9.375C8.87772 8.654 8.40081 8.80595 8.04918 9.07644C7.69754 9.34692 7.5 9.71378 7.5 10.0963C7.5 10.4788 7.69754 10.8457 8.04918 11.1162C8.40081 11.3867 8.87772 11.5386 9.375 11.5386H11.3672L13.5938 39.0254C13.7602 41.4458 16.1719 43.2694 19.2188 43.2694H40.7812C43.8434 43.2694 46.207 41.4863 46.4062 39.0326L48.6328 11.5386H50.625C51.1223 11.5386 51.5992 11.3867 51.9508 11.1162C52.3025 10.8457 52.5 10.4788 52.5 10.0963C52.5 9.71378 52.3025 9.34692 51.9508 9.07644C51.5992 8.80595 51.1223 8.654 50.625 8.654ZM22.5668 37.5001H22.5C22.0141 37.5004 21.547 37.3555 21.1972 37.096C20.8475 36.8366 20.6423 36.4828 20.625 36.1092L19.6875 15.9169C19.6698 15.5344 19.8503 15.1621 20.1894 14.882C20.5285 14.6019 20.9984 14.4369 21.4957 14.4232C21.993 14.4096 22.4769 14.5485 22.8411 14.8093C23.2053 15.0702 23.4198 15.4316 23.4375 15.8142L24.375 36.0065C24.3839 36.1959 24.3442 36.3848 24.2582 36.5625C24.1721 36.7401 24.0414 36.9029 23.8734 37.0416C23.7055 37.1804 23.5036 37.2923 23.2794 37.3709C23.0552 37.4496 22.8131 37.4935 22.5668 37.5001ZM31.875 36.0578C31.875 36.4404 31.6775 36.8072 31.3258 37.0777C30.9742 37.3482 30.4973 37.5001 30 37.5001C29.5027 37.5001 29.0258 37.3482 28.6742 37.0777C28.3225 36.8072 28.125 36.4404 28.125 36.0578V15.8655C28.125 15.483 28.3225 15.1162 28.6742 14.8457C29.0258 14.5752 29.5027 14.4232 30 14.4232C30.4973 14.4232 30.9742 14.5752 31.3258 14.8457C31.6775 15.1162 31.875 15.483 31.875 15.8655V36.0578ZM35.625 8.654H24.375V6.49053C24.3736 6.39553 24.3969 6.30127 24.4435 6.21328C24.4901 6.12529 24.5591 6.04536 24.6464 5.97818C24.7338 5.911 24.8377 5.85792 24.9521 5.82206C25.0665 5.7862 25.189 5.76829 25.3125 5.76938H34.6875C34.811 5.76829 34.9335 5.7862 35.0479 5.82206C35.1623 5.85792 35.2662 5.911 35.3536 5.97818C35.4409 6.04536 35.5099 6.12529 35.5565 6.21328C35.6031 6.30127 35.6264 6.39553 35.625 6.49053V8.654ZM39.375 36.1092C39.3577 36.4828 39.1525 36.8366 38.8028 37.096C38.453 37.3555 37.9859 37.5004 37.5 37.5001H37.432C37.1859 37.4934 36.9438 37.4494 36.7197 37.3707C36.4957 37.292 36.294 37.18 36.1262 37.0413C35.9584 36.9026 35.8277 36.7398 35.7417 36.5622C35.6557 36.3847 35.6161 36.1958 35.625 36.0065L36.5625 15.8142C36.5713 15.6247 36.6285 15.4385 36.7308 15.2661C36.8331 15.0937 36.9786 14.9385 37.1589 14.8093C37.3392 14.6802 37.5508 14.5796 37.7817 14.5134C38.0125 14.4471 38.2581 14.4165 38.5043 14.4232C38.7505 14.43 38.9926 14.474 39.2167 14.5527C39.4409 14.6314 39.6427 14.7433 39.8106 14.882C39.9785 15.0207 40.1092 15.1835 40.1953 15.3611C40.2815 15.5386 40.3213 15.7275 40.3125 15.9169L39.375 36.1092Z" fill="black"/>
</svg>
